<svg version="1.1" xmlns="http://www.w3.org/2000/svg" style="display: block;" viewBox="0 0 2048 2048" preserveAspectRatio="xMidYMid meet">
<path transform="translate(0,0)" fill="rgb(0,0,0)" d="M 0 0 L 2048 0 L 2048 2048 L 0 2048 L 0 0 z"/>
<path transform="translate(0,0)" fill="rgb(114,127,82)" d="M 1068.05 47.0832 L 2000.97 47.0585 L 2000.97 2000.99 L 1068.1 2000.91 C 1067.29 1945.76 1068.04 1888.65 1068.04 1833.38 L 1068.01 1502.24 C 1166.74 1491.47 1250.12 1458.3 1327.77 1395.78 L 1440.28 1508.16 L 1495.94 1563.9 L 1495.97 1792.05 L 1792.06 1792.03 L 1792.03 1495.95 L 1563.91 1495.93 C 1544.67 1477.9 1523.71 1455.91 1504.9 1437.1 L 1395.71 1327.75 C 1453.06 1257.72 1489.37 1172.85 1500.41 1083 C 1516.82 948.344 1478.75 825.924 1395.79 720.087 C 1440.28 674.176 1486.95 629.835 1531.67 584.101 C 1542.11 573.421 1553.19 562.119 1564.19 552.054 L 1792.06 552.032 L 1792.02 255.955 L 1495.97 255.975 L 1495.95 484.142 L 1327.8 652.281 C 1274.65 607.037 1200.12 571.706 1132.42 556.321 C 1110 551.227 1090.88 548.557 1068.04 545.63 L 1068.05 47.0832 z"/>
<path transform="translate(0,0)" fill="rgb(114,127,82)" d="M 47.0352 47.0643 L 979.959 47.0715 L 979.998 545.779 C 887.597 554.158 791.424 592.523 720.249 652.404 L 552.111 484.158 C 550.769 409.499 552.029 330.937 552.025 255.957 L 255.977 255.975 L 255.984 552.037 L 484.112 552.038 L 652.284 720.26 C 593.935 789.552 556.363 882.569 546.753 972.279 C 532.831 1100.15 570.859 1228.26 652.297 1327.83 C 596.69 1383.65 540.24 1440.98 483.929 1495.94 L 332.556 1495.98 C 310.58 1495.98 276.603 1494.76 255.968 1496.28 L 255.984 1792.04 L 552.075 1792.04 L 552.035 1564.27 C 565.806 1548.26 593.506 1522.28 609.03 1506.75 L 720.138 1395.69 C 796.955 1459.52 882.103 1490.17 979.984 1502.31 L 979.956 2000.96 L 47.0033 2000.96 C 47.8294 1924.32 47.092 1846.19 47.0967 1769.39 L 47.0964 1316.25 L 47.0352 47.0643 z"/>
<path transform="translate(0,0)" fill="rgb(254,254,254)" d="M 1002.61 634.624 C 1217.82 622.803 1401.81 787.819 1413.38 1003.05 C 1424.96 1218.27 1259.74 1402.07 1044.5 1413.4 C 829.603 1424.71 646.166 1259.81 634.608 1044.93 C 623.051 830.052 787.743 646.427 1002.61 634.624 z"/>
<path transform="translate(0,0)" fill="rgb(0,0,0)" d="M 912.029 912.023 L 1136.01 912 L 1136.03 1136.02 L 912.021 1136.02 L 912.029 912.023 z"/>
</svg>